<?xml version="1.0" encoding="utf-8"?>
<!-- Generator: Adobe Illustrator 16.0.4, SVG Export Plug-In . SVG Version: 6.00 Build 0)  -->
<!DOCTYPE svg PUBLIC "-//W3C//DTD SVG 1.1//EN" "http://www.w3.org/Graphics/SVG/1.1/DTD/svg11.dtd">
<svg version="1.1" id="Layer_1" xmlns="http://www.w3.org/2000/svg" xmlns:xlink="http://www.w3.org/1999/xlink" x="0px" y="0px"
	 width="144px" height="144px" viewBox="0 0 144 144" enable-background="new 0 0 144 144" xml:space="preserve">
<circle fill="#62A53A" cx="72" cy="72" r="66.551"/>
<g id="Bullet_4_-_Next">
	<g>
		<g>
			<circle fill="#FFFFFF" cx="72" cy="72" r="43.869"/>
		</g>
	</g>
	<g id="Copy">
		<g id="Tools">
			<path fill="#62A53A" d="M89.953,81.975h-0.004c-0.171,0-0.339,0.018-0.507,0.026L72.099,64.658
				c-1.214-1.215-2.979-1.545-4.506-1.022l2.708-7.932c0.444-1.307-0.007-3.233-0.981-4.21l-5.669-5.671
				c-0.979-0.978-2.905-1.429-4.21-0.983L56.039,46c-0.556,0.189-0.909,0.507-1.001,0.899c-0.093,0.389,0.083,0.831,0.501,1.247
				l3.653,3.64c1.285,1.292,1.282,3.395-0.007,4.684l-3.914,3.914c-0.622,0.621-1.452,0.964-2.335,0.964
				c-0.893,0-1.726-0.346-2.352-0.972l-3.637-3.638c-0.418-0.416-0.859-0.594-1.248-0.501s-0.705,0.447-0.896,1.001l-1.163,3.4
				c-0.445,1.312,0.006,3.238,0.982,4.211l5.672,5.669c0.975,0.977,2.898,1.425,4.2,0.983l7.943-2.71
				c-0.523,1.529-0.194,3.294,1.02,4.508l17.344,17.345c-0.011,0.168-0.026,0.337-0.026,0.509c0,5.065,4.107,9.176,9.174,9.176
				s9.178-4.11,9.178-9.176C99.127,86.083,95.019,81.975,89.953,81.975z M89.953,95.962c-2.655,0-4.81-2.158-4.81-4.81
				c0-1.285,0.497-2.495,1.409-3.4c0.906-0.91,2.111-1.409,3.4-1.409c2.647,0,4.806,2.156,4.806,4.81
				C94.759,93.804,92.601,95.962,89.953,95.962z"/>
		</g>
	</g>
</g>
</svg>
